<svg xmlns="http://www.w3.org/2000/svg">
<symbol id="search">
  <path
    d="M14.386 14.386l4.0877 4.0877-4.0877-4.0877c-2.9418 2.9419-7.7115 2.9419-10.6533 0-2.9419-2.9418-2.9419-7.7115 0-10.6533 2.9418-2.9419 7.7115-2.9419 10.6533 0 2.9419 2.9418 2.9419 7.7115 0 10.6533z"
    stroke="currentColor"
    fill="none"
    fillRule="evenodd"
    strokeLinecap="round"
    strokeLinejoin="round"
  />
</symbol>
<symbol id="tapahead">
  <g
    stroke="currentColor"
    fill="none"
    fillRule="evenodd"
    strokeLinecap="round"
    strokeLinejoin="round"
  >
    <polyline
      points="11 4.27636719 4.27636719 4.27636719 4.27636719 11"
    ></polyline>
    <line x1="5.25" y1="5.25" x2="14.5" y2="14.5"></line>
  </g>
</symbol>
<symbol id="actionRemove">
  <path
    d="M10 10l5.09-5.09L10 10l5.09 5.09L10 10zm0 0L4.91 4.91 10 10l-5.09 5.09L10 10z"
    stroke="currentColor"
    fill="none"
    fillRule="evenodd"
    strokeLinecap="round"
    strokeLinejoin="round"
  />
</symbol>
<symbol id="sourceRecent">
  <g
    stroke="currentColor"
    fill="none"
    fillRule="evenodd"
    strokeLinecap="round"
    strokeLinejoin="round"
  >
    <path
      d="M3.18 6.6a8.23 8.23 0 1112.93 9.94h0a8.23 8.23 0 01-11.63 0"
    />
    <path d="M6.44 7.25H2.55V3.36M10.45 6v5.6M10.45 11.6L13 13" />
  </g>
</symbol>
</svg>